# xmcd
#
# Track frame offsets: 
#        150
#        13852
#        33115
#        56207
#        73580
#        88982
#        110229
#        124125
#        139187
#        157175
#        174395
#
# Disc length: 2595 seconds
#
# Revision: 2
# Processed by: cddbd v1.5.2PL0 Copyright (c) Steve Scherf et al.
# Submitted via: ExactAudioCopy v0.99pb5
#
DISCID=a20a210b
DTITLE=Carmen Cuesta - Mi Bossa Nova
DYEAR=2009
DGENRE=Tweety Records
TTITLE0=Triste
TTITLE1=Fotografia
TTITLE2=Retrato Em Branco E Pietro
TTITLE3=O Barquinho
TTITLE4=Pois E
TTITLE5=Jobim
TTITLE6=Modinha
TTITLE7=Tormenta
TTITLE8=Manha de Carnival
TTITLE9=Chega De Saudade
TTITLE10=Meditacao
EXTD=
EXTT0=
EXTT1=
EXTT2=
EXTT3=
EXTT4=
EXTT5=
EXTT6=
EXTT7=
EXTT8=
EXTT9=
EXTT10=
PLAYORDER=
